# xmcd
#
# Track frame offsets:
#	150
#	11401
#	20358
#	31505
#	39819
#	50022
#	59441
#	68245
#	79297
#	85554
#	97416
#	108050
#	117047
#	126290
#	135002
#	144501
#	151354
#	160203
#	170268
#	178821
#	194123
#	204091
#	215573
#	228057
#	234974
#	246517
#	255160
#	267524
#	277751
#
# Disc length: 3836 seconds
#
# Revision: 0
# Processed by: cddbd v1.5.2PL0 Copyright (c) Steve Scherf et al.
# Submitted via: EasyCDDAExtractor 15.3.0.1
#
DISCID=7a0efa1d
DTITLE=Rough Riders (Johnny Bond and Jimmy Wakely and Dick Reinhart) - Ride Ride R
DTITLE=ide
DYEAR=1900
DGENRE=Country
TTITLE0=My Old Home Town
TTITLE1=Cowboy Serenade
TTITLE2=Help Me Lose The Blues
TTITLE3=Ride Ride Ride
TTITLE4=What Will I Tell Old Paint
TTITLE5=Wind Blows Free
TTITLE6=Gallop Over The Hill
TTITLE7=Poor Little Rose
TTITLE8=Lady Hoo I Love You
TTITLE9=Weary Old Hills
TTITLE10=My Saddle Serenade
TTITLE11=My Cherokee Rose
TTITLE12=Blue Ridge Mountain Trail
TTITLE13=Old Wagon Wheel
TTITLE14=Hillbilly Town
TTITLE15=Navajo
TTITLE16=Aloha Means Farewell
TTITLE17=Bells Of San Juan
TTITLE18=I've Been On The Range Too Long
TTITLE19=Home Trails
TTITLE20=Down Where The Watermelon Grows
TTITLE21=Stars Of The Midnight Range
TTITLE22=There's A Round-Up Ahead For The Cowboys
TTITLE23=My Cross Eyed Gal
TTITLE24=Rainbow Valley
TTITLE25=Roving Gambler
TTITLE26=Farewell To The Lone Prairie
TTITLE27=It's The Desert In My Soul
TTITLE28=Out On The Open Range
EXTD=
EXTT0=
EXTT1=
EXTT2=
EXTT3=
EXTT4=
EXTT5=
EXTT6=
EXTT7=
EXTT8=
EXTT9=
EXTT10=
EXTT11=
EXTT12=
EXTT13=
EXTT14=
EXTT15=
EXTT16=
EXTT17=
EXTT18=
EXTT19=
EXTT20=
EXTT21=
EXTT22=
EXTT23=
EXTT24=
EXTT25=
EXTT26=
EXTT27=
EXTT28=
PLAYORDER=
